<svg xmlns="http://www.w3.org/2000/svg" xmlns:xlink="http://www.w3.org/1999/xlink" viewBox="0 0 1402.94 228.13">
  <defs>
    <style>
      .cls-1 {
        fill: url(#Sfumatura_senza_nome_7);
      }

      .cls-2 {
        fill: #fff;
      }
    </style>
    <linearGradient id="Sfumatura_senza_nome_7" data-name="Sfumatura senza nome 7" x1="271.07" y1="236.52" x2="-1.48" y2="0.95" gradientUnits="userSpaceOnUse">
      <stop offset="0" stop-color="#31e4fa"/>
      <stop offset="0.5" stop-color="#4877ff"/>
      <stop offset="1" stop-color="#d775ff"/>
    </linearGradient>
  </defs>
  <g id="Livello_2" data-name="Livello 2">
    <g id="Livello_1-2" data-name="Livello 1">
      <g>
        <path class="cls-1" d="M262.17,223.34c-1.8-12.29-15.4-89.85-78-145.59a.38.38,0,0,1-.07-.5C198.8,54.05,208.39,12.76,209.91,6a.37.37,0,0,0-.59-.39c-17.35,12.27-44.78,25.67-61,33.21a.36.36,0,0,1-.32,0A138.45,138.45,0,0,0,92.78,23.67a1.29,1.29,0,0,0-.72.16C85.67,27.36,79.83,34,77.26,37.16a1.28,1.28,0,0,0,.82,2.08l8.65,1.16a1.28,1.28,0,0,1,.66,2.24C73.57,54.57,62.52,68.84,57,76.57l-.08.1A.72.72,0,0,1,55.65,76l.06-.15L66.16,50.32A1.28,1.28,0,0,0,65,48.56h-6a1.29,1.29,0,0,1-1.15-1.85c4.92-10.12,9.31-16.56,12.52-20.53a1.31,1.31,0,0,0-1.15-2.13c-18.4,1.74-30.72,6.24-31.95,6.71a.41.41,0,0,1-.22,0C35.37,30.28,16.62,24.27,1.61.19A.39.39,0,0,0,.89.33C0,6.79-4,42.24,17.79,67.3a3.26,3.26,0,0,1,.77,2.54l-3.09,22.4a12.09,12.09,0,0,1-8.76,10c-3.12.86-5.15,1.28-5.66,3.44-3.92,16.77,12.8,38.4,12.8,38.4h0a57.79,57.79,0,0,0,16.6,15.87.39.39,0,0,0,.57-.48c-1.5-3.91-6.36-17.29-4.84-22.11s13.88-7.56,13.88-7.56-20.85-12.34-19.65-19.56c1-5.74,13.84-7.79,19.66-7.72,5.5.06,17.37,2.16,18.32,7.59,1.22,7-18.33,19.69-18.33,19.69,24.07,32.8,17.73,62.53,16.26,68a.39.39,0,0,1-.72.08l-11.8-21a.4.4,0,0,0-.74.12,86.76,86.76,0,0,0,2.27,38.85A16.86,16.86,0,0,0,60.6,228a101.77,101.77,0,0,0,30.73-2.9,16.93,16.93,0,0,0,10.36-7.85c2.21-3.73,4.52-7.3,6.88-10.71,3.34-4.82,6.79-9.31,10.25-13.47,4.68-5.63,9.38-10.66,13.84-15.05,15-14.75,21.32-16,27.25-22.52,9.83-10.85,3.71-28.57,2.2-34.89l-1-3.78a.52.52,0,0,1,.94-.39c12.53,20.7,12.23,37.15,3.32,44.22-16.24,12.88-27.52,22.47-34.57,31.86a.38.38,0,0,0,.29.6c23.52.76,63.64,5.8,91.2,29.38a.39.39,0,0,0,.64-.32c-.32-4.59-2.94-25.75-24-43.62a.38.38,0,0,1,.31-.67c7,1.45,38,9.73,62.16,45.75A.38.38,0,0,0,262.17,223.34ZM87.77,91.63H77.89a.4.4,0,0,1-.26-.69c.53-.48,1.07-1,1.6-1.4a87.1,87.1,0,0,1,13.62-9.75l.4-.24.1,0c1-.55,2-1.06,2.88-1.52,9.31-4.65,15.85-5.14,17.84-5.16a.39.39,0,0,1,.35.57l-.51,1-1.63,3.19-3.37,6.62a13.39,13.39,0,0,1-11.78,7.31Zm73.71-44.89h0c8.24-3.56,18.32-8.67,24.66-14.59a.39.39,0,0,1,.63.4c-1.09,3.6-4.4,13.11-10.12,17.61a.39.39,0,0,0,.33.68,34.2,34.2,0,0,0,4.81-1.34.38.38,0,0,1,.47.54,64.17,64.17,0,0,1-5.5,8.39l-.33.41a28.34,28.34,0,0,1-4.32,4.42,5.6,5.6,0,0,1-5.92.62c-.86-.42-1.78-.91-2.72-1.44l-.45-.26a173.25,173.25,0,0,1-14.6-9.72h0c-.42-.3-.64-.48-.64-.48S153.83,50,161.48,46.74ZM14.18,41.53a25.91,25.91,0,0,0,3.37,1.24.39.39,0,0,0,.39-.64c-4.11-4-6.14-11.41-6.85-14.55a.39.39,0,0,1,.68-.34A55.43,55.43,0,0,0,31.73,41v0a73.53,73.53,0,0,0-7.11,11.4,2.42,2.42,0,0,1-3.84.66c-3.33-3.23-6.08-8.8-7.11-11.05A.39.39,0,0,1,14.18,41.53ZM24.13,89l-3.82-9.83a.39.39,0,0,1,.38-.53c1.7.09,6.91.93,13.9,7.25a56.07,56.07,0,0,1,5,5.13.4.4,0,0,1-.3.65H28A4.18,4.18,0,0,1,24.13,89ZM96.35,198.09,81,176.33a.39.39,0,0,0-.7.13A67.12,67.12,0,0,0,78,196.88a.38.38,0,0,1-.37.41l-11.69.76a.39.39,0,0,1-.41-.44c4.54-34.3-6.7-54.48-12.07-63.24a.39.39,0,0,1,.45-.57l12.46,3.62a.43.43,0,0,1,.28.32,58.49,58.49,0,0,0,9.65,23.18.4.4,0,0,0,.71-.14l3.91-18.67a.37.37,0,0,1,.49-.29c2.42.8,15.15,4.83,19.73,3.87,7.76-1.64,19.57-14.82,19.84-22.74.11-3.32-5.85-9.84-8.65-12.72a.39.39,0,0,1,.44-.63c4.71,2.09,16.72,7.85,17.4,12.54,1.42,9.8-21.5,30.15-26.15,34.15a2.25,2.25,0,0,0-.77,1.79A110.87,110.87,0,0,1,97,198,.39.39,0,0,1,96.35,198.09Z"/>
        <g>
          <polygon class="cls-2" points="280.25 90.55 311.29 90.55 311.29 183.01 334 183.01 334 90.55 359.31 90.55 365.04 70.46 280.25 70.46 280.25 90.55"/>
          <path class="cls-2" d="M439.36,141.85c0,15.35-9.8,21.56-20.42,21.56-10.46,0-20.26-6.21-20.26-21.56V70.46H376v72.86c0,25.81,20.09,41.65,43,41.65,23,0,43.13-15.84,43.13-41.65V70.46H439.36Z"/>
          <path class="cls-2" d="M565.14,107.22c0-18.46-11.11-36.76-36.92-36.76H473.93l9.36,20.09V183H506V142.66h7.68L540.47,183H567.1L538,141.68C553.87,138.91,565.14,123.22,565.14,107.22Zm-41,17.15H506V90.55h19.93c10.62,0,16.34,8.17,16.34,17.15S536.88,124.37,524.14,124.37Z"/>
          <path class="cls-2" d="M644.2,122.9c12.25-3.76,15.52-15,15.52-23.36,0-17-12.91-29.08-33-29.08h-54l9.37,20.09V183h48c24.83,0,35.45-16.66,35.45-32.18C665.6,138.09,658.57,125.35,644.2,122.9ZM604.83,90.55h20.58c8,0,11.6,5.39,11.6,12.25,0,7.68-4.41,12.42-11.6,12.42H604.83Zm22,72.37h-22V134.17h22.38c10.78,0,15.52,7.35,15.52,14.37C642.73,156.06,637.5,162.92,626.88,162.92Z"/>
          <path class="cls-2" d="M731.75,68.5c-32,0-57.18,26.3-57.18,58.32,0,31.85,25.16,58.15,57.18,58.15,31.85,0,57.34-26.3,57.34-58.15C789.09,94.8,763.6,68.5,731.75,68.5Zm0,95.07c-20.26,0-34.47-16.5-34.47-36.75S711.49,89.9,731.75,89.9c20.09,0,34.47,16.66,34.47,36.92S751.84,163.57,731.75,163.57Z"/>
          <path class="cls-2" d="M847.4,117.51l-12.58-3.6c-11.76-3.43-12.58-9.15-12.58-11.92,0-7.52,6.7-13.4,15.52-13.4,9.8,0,15.36,6.21,15.36,14.21h22.7c0-21.4-16.33-34.3-37.57-34.3-21.56,0-38.88,13.88-38.88,34,0,10.13,4.41,25,29.08,31.52l13.72,3.93c9.64,2.94,14.21,7.35,14.21,13.55,0,8-6.69,13.56-16.82,13.56-10.46,0-18.3-6.69-18.46-14.7H798.39c0,19.77,16.5,34.63,40.51,34.63,21.24,0,40.35-12.25,40.35-34.63C879.25,131.23,864.39,122.57,847.4,117.51Z"/>
          <path class="cls-2" d="M1103.36,141.85c0,15.35-9.8,21.56-20.42,21.56-10.45,0-20.25-6.21-20.25-21.56V70.46L1040,78.57v64.75c0,25.81,20.09,41.65,43,41.65,23,0,43.13-15.84,43.13-41.65V70.46h-22.71Z"/>
          <path class="cls-2" d="M1229.14,107.22c0-18.46-11.11-36.76-36.92-36.76h-54.29l9.37,20.09V183H1170V142.66h7.67L1204.47,183h26.63L1202,141.68C1217.87,138.91,1229.14,123.22,1229.14,107.22Zm-41,17.15H1170V90.55h19.93c10.61,0,16.33,8.17,16.33,17.15S1200.88,124.37,1188.14,124.37Z"/>
          <path class="cls-2" d="M1371.09,117.51l-12.58-3.6c-11.76-3.43-12.58-9.15-12.58-11.92,0-7.52,6.7-13.4,15.52-13.4,9.8,0,15.36,6.21,15.36,14.21h22.7c0-21.4-16.33-34.3-37.57-34.3-21.56,0-38.88,13.88-38.88,34,0,10.13,4.41,25,29.08,31.52l13.72,3.93c9.64,2.94,14.21,7.35,14.21,13.55,0,8-6.69,13.56-16.82,13.56-10.46,0-18.3-6.69-18.46-14.7h-22.71c0,19.77,16.5,34.63,40.51,34.63,21.24,0,40.35-12.25,40.35-34.63C1402.94,131.23,1388.08,122.57,1371.09,117.51Z"/>
          <polygon class="cls-2" points="1236.76 70.46 1246.12 90.55 1246.12 183.01 1268.83 183.01 1268.83 137.6 1300.64 137.6 1306.08 117.67 1268.83 117.67 1268.83 90.55 1310.28 90.55 1315.71 70.46 1246.12 70.46 1236.76 70.46"/>
          <polygon class="cls-2" points="1019.37 70.46 1010.91 70.46 1010 70.46 991.31 70.46 956.84 144.3 922.05 70.46 902.77 70.46 902.61 71.75 902.61 70.46 893.24 70.46 900.78 86.62 888.88 183.01 912.08 183.01 920.25 113.26 948.02 170.27 965.82 170.27 993.27 113.26 1001.44 183.01 1024.63 183.01 1012.67 84.83 1019.37 70.46"/>
        </g>
      </g>
    </g>
  </g>
</svg>
